<?xml version="1.0" encoding="utf-8"?>
<!-- Generator: Adobe Illustrator 25.0.1, SVG Export Plug-In . SVG Version: 6.00 Build 0)  -->
<svg version="1.1" id="Layer_1" xmlns="http://www.w3.org/2000/svg" xmlns:xlink="http://www.w3.org/1999/xlink" x="0px" y="0px"
	 viewBox="0 0 100 100" style="enable-background:new 0 0 100 100;" xml:space="preserve">
<g>
	<path d="M49.99,0c-9.59,0-23.86,9.39-23.86,35.27c0,9.98,3.87,23.66,11.49,40.64c5.66,12.6,11.4,22.42,11.45,22.52l0.92,1.57
		l0.93-1.57c0.05-0.1,5.79-9.92,11.45-22.52C70,58.93,73.87,45.25,73.87,35.27C73.87,7.38,58.25,0,49.99,0z M60.76,27.27
		c0,5.68-4.62,10.3-10.29,10.3c-5.69,0-10.3-4.63-10.3-10.3c0-5.68,4.62-10.3,10.3-10.3C56.14,16.97,60.76,21.59,60.76,27.27z"/>
</g>
</svg>
