<?xml version="1.0" encoding="utf-8"?>
<!-- Generator: Adobe Illustrator 25.0.1, SVG Export Plug-In . SVG Version: 6.00 Build 0)  -->
<svg version="1.1" id="Layer_1" xmlns="http://www.w3.org/2000/svg" xmlns:xlink="http://www.w3.org/1999/xlink" x="0px" y="0px"
	 viewBox="0 0 100 100" style="enable-background:new 0 0 100 100;" xml:space="preserve">
<g>
	<path d="M90.1,98.81H9.93L9.7,98.71c-0.06-0.03-0.13-0.05-0.19-0.08c-0.04-0.02-0.04-0.02-0.03-0.02c-2.47-0.5-4.57-1.75-6.28-3.74
		c-1.45-1.68-2.08-3.61-2.51-5.29l-0.04-0.31V9.36l0.14-0.47C0.83,8.77,0.87,8.65,0.9,8.53c1.14-4.93,5.61-8.52,10.64-8.52l25.7,0
		c17.14,0,34.27-0.01,51.41,0c5.94,0.01,10.8,4.86,10.83,10.82c0.01,2.22,0.01,4.44,0,6.66l0,3.31c0,22.31,0,44.62,0.01,66.93
		c0,3.42-1.35,6.3-4.01,8.58c-1.63,1.39-3.55,2.02-5.22,2.46L90.1,98.81z M9.5,98.61c0.01,0,0.03,0.01,0.05,0.01
		C9.53,98.62,9.51,98.62,9.5,98.61z M10.45,96.3h79.33c1.41-0.37,2.86-0.87,4.06-1.89c2.1-1.8,3.13-3.99,3.13-6.67
		c-0.01-22.31-0.01-44.62-0.01-66.94l0-3.32c0-2.21,0.01-4.43,0-6.64c-0.02-4.58-3.75-8.31-8.32-8.32c-17.14-0.01-34.27,0-51.4,0
		l-25.7,0c-3.87,0-7.32,2.77-8.2,6.59C3.3,9.29,3.24,9.47,3.19,9.64L3.16,9.72v79.39c0.35,1.35,0.87,2.88,1.94,4.12
		c1.37,1.59,2.97,2.54,4.89,2.92C10.17,96.18,10.33,96.24,10.45,96.3z"/>
</g>
<g>
	<path d="M31.95,84.31H15.21V38.59h16.75V84.31z M17.72,81.79h11.72V41.1H17.72V81.79z"/>
</g>
<g>
	<path d="M23.63,32.8c-0.02,0-0.04,0-0.05,0h0c-5.57-0.04-9.91-4.39-9.87-9.91c0.03-5.58,4.29-9.82,9.9-9.86c0.02,0,0.05,0,0.07,0
		c2.57,0,5,1,6.84,2.82c1.89,1.87,2.94,4.37,2.95,7.03c0,2.67-1.03,5.18-2.92,7.06C28.7,31.79,26.24,32.8,23.63,32.8z M23.59,30.29
		c0.01,0,0.03,0,0.04,0c1.94,0,3.76-0.75,5.14-2.13c1.41-1.4,2.18-3.27,2.18-5.27c-0.01-1.99-0.79-3.85-2.2-5.25
		c-1.38-1.36-3.19-2.09-5.12-2.09c-4.27,0.03-7.39,3.12-7.41,7.36C16.19,27.09,19.36,30.26,23.59,30.29L23.59,30.29z"/>
</g>
<g>
	<path d="M56.11,84.3H39.25V38.6h16.82v3.65c5.95-5.64,14.59-6.19,21.24-1.28c5.11,3.78,7.7,8.88,7.7,15.16
		C85,64.75,85,73.36,85,81.99v2.27h-16.9V58.32c0-1.89-0.48-3.35-1.53-4.57c-1.51-1.78-3.93-2.53-6.03-1.88
		c-2.44,0.76-4.15,2.78-4.34,5.13c-0.07,0.82-0.1,1.55-0.1,2.24c-0.01,5,0,9.99,0,14.98L56.11,84.3z M41.76,81.79H53.6l0-7.55
		c0-4.99,0-9.98,0-14.98c0-0.76,0.04-1.57,0.11-2.45c0.28-3.38,2.67-6.25,6.09-7.32c3.05-0.96,6.54,0.11,8.69,2.65
		c1.43,1.68,2.12,3.71,2.12,6.2v23.42h11.87c0-8.54,0-17.08,0.01-25.61c0-5.52-2.19-9.82-6.68-13.14
		c-5.89-4.35-13.29-3.76-18.43,1.48c-0.31,0.32-0.6,0.66-0.94,1.06c-0.21,0.25-0.44,0.51-0.69,0.8l-2.2,2.5v-7.72h-11.8V81.79z"/>
</g>
</svg>
