<?xml version="1.0" encoding="utf-8"?>
<!-- Generator: Adobe Illustrator 25.0.1, SVG Export Plug-In . SVG Version: 6.00 Build 0)  -->
<svg version="1.1" id="Layer_1" xmlns="http://www.w3.org/2000/svg" xmlns:xlink="http://www.w3.org/1999/xlink" x="0px" y="0px"
	 viewBox="0 0 100 100" style="enable-background:new 0 0 100 100;" xml:space="preserve">
<style type="text/css">
	.st0{fill:none;stroke:#000000;stroke-width:3;stroke-miterlimit:10;}
</style>
<path class="st0" d="M97.84,39.89c-0.02-5.69,0.07-11.39-1.06-17c-1.47-7.26-5.21-13.02-11.59-16.9C80.46,3.1,75.17,2.08,69.71,1.92
	c-6.52-0.2-13.05-0.25-19.58-0.36c0,0.04,0,0.09,0,0.13c-4.5,0-9.01-0.07-13.51,0.02c-4.7,0.1-9.42,0.1-14.03,1.24
	C13.46,5.2,7.26,10.69,4.2,19.64C2.58,24.4,2.41,29.36,2.35,34.3c-0.11,9.57-0.11,19.14-0.03,28.7c0.04,4.7,0.09,9.43,1.25,14.03
	c2.27,8.98,7.66,15.15,16.48,18.22c4.82,1.68,9.85,1.86,14.86,1.92c9.57,0.12,19.13,0.11,28.7,0.03c4.66-0.04,9.35-0.09,13.93-1.23
	c9.16-2.28,15.38-7.79,18.41-16.8c1.6-4.77,1.75-9.73,1.82-14.67C97.9,56.31,97.88,48.1,97.84,39.89z M89.19,61.62
	c-0.06,4.34-0.01,8.72-0.97,13.01c-1.79,8.01-7.36,12.66-15.29,13.33c-7.6,0.64-15.25,0.65-20.7,0.86
	c-8.69-0.18-15.18-0.23-21.66-0.51c-2.52-0.11-5.09-0.49-7.49-1.22c-6.55-1.99-10.26-6.7-11.3-13.32
	c-0.62-3.98-0.78-8.05-0.84-12.09c-0.12-8.13-0.12-16.28,0-24.41c0.06-4.35,0.02-8.72,0.98-13.02c1.59-7.15,6.63-12.08,13.88-13.08
	c4.09-0.57,8.26-0.77,12.4-0.83c7.92-0.13,15.86-0.12,23.78,0c4.45,0.06,8.93,0,13.32,0.98c7.08,1.58,12.03,6.61,13.05,13.8
	c0.57,4.02,0.78,8.13,0.84,12.19C89.31,45.41,89.31,53.51,89.19,61.62z"/>
<path class="st0" d="M50.08,24.92c-13.41-0.19-24.79,11.09-24.6,24.99c0.18,13.13,11.12,24,24.46,24.11
	c13.61,0.11,24.89-11.22,24.7-25.02C74.46,35.84,63.52,24.94,50.08,24.92z M50.1,65.4c-1.78,0-3.5-0.29-5.11-0.84
	c-0.12-0.04-0.25-0.09-0.37-0.13c-0.25-0.09-0.49-0.18-0.73-0.28c-0.23-0.1-0.47-0.21-0.7-0.32c-1.62-0.78-3.09-1.83-4.36-3.1
	c-0.18-0.18-0.36-0.36-0.53-0.55c-0.17-0.19-0.34-0.38-0.5-0.58c-0.25-0.3-0.48-0.6-0.7-0.91c-0.15-0.21-0.29-0.42-0.43-0.64
	c-0.14-0.21-0.27-0.43-0.4-0.65c0,0,0,0,0,0c-0.13-0.22-0.25-0.44-0.37-0.67c0,0,0,0,0,0c-0.12-0.23-0.23-0.46-0.34-0.69
	c-0.54-1.17-0.94-2.41-1.17-3.71c-0.05-0.26-0.09-0.52-0.12-0.78c-0.09-0.66-0.13-1.33-0.14-2.01c-0.03-8.73,7.12-15.95,15.84-16
	c1.81-0.01,3.54,0.29,5.17,0.84c0.61,0.21,1.21,0.46,1.79,0.74c0,0,0,0,0,0c0.23,0.11,0.46,0.23,0.68,0.35c0,0,0,0,0,0
	c0.23,0.12,0.45,0.25,0.66,0.39c0.33,0.2,0.66,0.41,0.97,0.64c0.31,0.23,0.61,0.46,0.91,0.7c0.39,0.32,0.77,0.66,1.13,1.03
	c0.36,0.36,0.71,0.74,1.03,1.13c0.25,0.3,0.48,0.6,0.7,0.91c0.22,0.31,0.43,0.63,0.64,0.96c0.14,0.22,0.27,0.44,0.39,0.67
	c0.12,0.22,0.24,0.45,0.35,0.69c0.06,0.11,0.11,0.23,0.16,0.35c0.16,0.35,0.31,0.71,0.44,1.08c0.14,0.37,0.26,0.74,0.37,1.12
	c0.07,0.25,0.14,0.5,0.2,0.76c0.27,1.15,0.41,2.35,0.41,3.58C66,58.18,58.83,65.37,50.1,65.4z"/>
<path d="M75.63,30.98c-0.04,0-0.07,0-0.11,0c-3.81-0.06-6.95-3.2-6.98-6.98c-0.02-1.86,0.7-3.62,2.01-4.94
	c1.34-1.35,3.15-2.09,5.08-2.09c0.01,0,0.02,0,0.03,0c3.86,0.02,6.89,3.08,6.88,6.98c0,1.91-0.75,3.7-2.12,5.04
	C79.13,30.27,77.42,30.98,75.63,30.98z M75.64,19.47c-1.27,0-2.44,0.48-3.31,1.36c-0.84,0.85-1.3,1.96-1.29,3.15
	c0.02,2.44,2.05,4.46,4.53,4.51c0.02,0,0.04,0,0.07,0c1.13,0,2.21-0.45,3.05-1.27c0.89-0.87,1.37-2.03,1.37-3.26v0
	c0-2.54-1.89-4.47-4.4-4.48C75.65,19.47,75.64,19.47,75.64,19.47z"/>
<path d="M56.39,36.23c-0.53-0.26-1.09-0.49-1.65-0.68l0.8-2.36c0.64,0.21,1.29,0.48,1.94,0.8L56.39,36.23z"/>
<path d="M59.36,38.14c-0.27-0.23-0.55-0.44-0.84-0.65l1.46-2.03c0.39,0.28,0.71,0.52,1,0.77L59.36,38.14z"/>
<path d="M61.37,40.14c-0.32-0.39-0.63-0.73-0.95-1.04l1.75-1.78c0.4,0.39,0.77,0.8,1.12,1.23L61.37,40.14z"/>
<path d="M62.6,41.87c-0.19-0.31-0.38-0.6-0.59-0.89l2.03-1.46c0.25,0.34,0.48,0.69,0.7,1.06L62.6,41.87z"/>
<path d="M63.84,44.43c-0.13-0.34-0.26-0.67-0.41-1l2.27-1.04c0.18,0.39,0.34,0.78,0.48,1.17L63.84,44.43z"/>
</svg>
