<?xml version="1.0" encoding="utf-8"?>
<!-- Generator: Adobe Illustrator 25.0.1, SVG Export Plug-In . SVG Version: 6.00 Build 0)  -->
<svg version="1.1" id="Layer_1" xmlns="http://www.w3.org/2000/svg" xmlns:xlink="http://www.w3.org/1999/xlink" x="0px" y="0px"
	 viewBox="0 0 513.5 31.28" style="enable-background:new 0 0 513.5 31.28;" xml:space="preserve">
<style type="text/css">
	.st0{fill:none;}
</style>
<g>
	<path class="st0" d="M476.51,14.29l-6.23-0.05V1.93h6.37c2.33,0,3.98,0.2,5.02,0.62c1.08,0.43,1.96,1.16,2.62,2.15
		c0.66,1,0.99,2.12,0.99,3.32c0,1.24-0.33,2.37-0.98,3.38c-0.65,1.02-1.57,1.76-2.73,2.22C480.43,14.07,478.78,14.29,476.51,14.29
		 M442.45,29.47h-4.39V1.93h2.93c4.78,0,8.13,0.31,10.25,0.96c2.84,0.86,5.09,2.49,6.69,4.82c1.58,2.32,2.39,5.15,2.39,8.4
		c0,3.11-0.74,5.78-2.21,7.94c-1.47,2.18-3.53,3.71-6.1,4.54C450.18,29.18,447.06,29.47,442.45,29.47 M352.74,30.2
		c-3.94,0-7.35-1.41-10.14-4.18c-2.79-2.77-4.21-6.22-4.21-10.24c0-2.71,0.64-5.2,1.9-7.42c1.26-2.21,3.04-4,5.28-5.3
		c4.52-2.63,9.93-2.59,14.43,0c2.27,1.31,4.06,3.07,5.32,5.25c1.25,2.18,1.89,4.64,1.89,7.32c0,2.69-0.64,5.18-1.89,7.39
		c-1.25,2.21-3.03,3.99-5.26,5.26C357.82,29.55,355.36,30.2,352.74,30.2 M316.67,31.28h1.99V15.31h13.05v-1.93h-13.05V1.93h13.05V0
		h-15.04V31.28z M404.07,31.28h2.1V5.59l22.21,25.48V0h-1.95v26L404.07,0.24V31.28z M436.2,31.28h9.73c3.93,0,7.01-0.57,9.16-1.7
		c2.13-1.12,3.89-2.88,5.23-5.24c1.35-2.37,2.03-5.16,2.03-8.29c0-3.63-0.86-6.8-2.56-9.41c-1.69-2.6-4.07-4.45-7.08-5.5
		C450.59,0.38,447.1,0,442.32,0h-6.12V31.28z M484.75,31.28h2.43l-11.7-15.1l1.27-0.01c2.63-0.01,4.7-0.35,6.16-1
		c1.42-0.63,2.53-1.57,3.29-2.8c0.77-1.24,1.16-2.7,1.16-4.34c0-1.96-0.56-3.64-1.67-4.97c-1.11-1.34-2.58-2.23-4.37-2.64
		c-1.23-0.28-3.65-0.43-7.2-0.43h-5.85v31.28h1.99V16.17h2.78L484.75,31.28z M501.73,31.28h1.95v-15.1L513.5,0h-2.29l-8.54,13.99
		L493.98,0h-2.26l10.01,16.18V31.28z M344.43,1.36c-2.5,1.45-4.5,3.48-5.95,6.04c-1.45,2.56-2.19,5.38-2.19,8.39
		c0,4.49,1.61,8.38,4.79,11.54c3.18,3.17,7.14,4.77,11.78,4.77c4.57,0,8.5-1.61,11.67-4.79c3.18-3.18,4.79-7.11,4.79-11.68
		c0-4.61-1.61-8.55-4.79-11.7c-3.19-3.15-7.2-4.75-11.93-4.75C349.68-0.82,346.93-0.08,344.43,1.36 M375.4,0v19.01
		c0,3.23,0.19,5.47,0.57,6.67c0.59,1.92,1.77,3.48,3.51,4.64c1.76,1.18,3.91,1.77,6.4,1.77c2.27,0,4.22-0.63,5.8-1.86
		c1.59-1.24,2.67-2.71,3.19-4.37c0.54-1.72,0.82-4.03,0.82-6.86V0h-1.99v19.01c0,2.65-0.12,4.36-0.35,5.25
		c-0.33,1.23-0.86,2.3-1.58,3.18c-0.72,0.88-1.63,1.58-2.7,2.08c-2.29,1.06-4.88,0.97-7.33-0.19c-1.32-0.63-2.32-1.43-2.97-2.38
		c-0.64-0.94-1.06-2.12-1.23-3.49c-0.09-0.59-0.14-2.05-0.14-4.44V0H375.4z"/>
</g>
<path class="st0" d="M209.31,4.81l6.54,13.88h-13.11L209.31,4.81z M194.54,31.28h2.24l5.07-10.71h14.81l5.12,10.71h2.13L209.32,0.01
	L194.54,31.28z M282.87,4.81l6.54,13.88h-13.11L282.87,4.81z M268.1,31.28h2.24l5.07-10.71h14.81l5.12,10.71h2.13L282.88,0
	L268.1,31.28z M193.58,0l-7.14,24.77l-9.65-24.54l-9.76,24.54L160,0h-2.03l8.75,30.85l10.1-25.27l9.91,25.26L195.59,0H193.58z
	 M228.76,0v31.28h14.51V29.4h-12.52V0H228.76z M249.68,0v31.28h14.51V29.4h-12.52V0H249.68z"/>
<path class="st0" d="M51.34,4.81l6.54,13.88H44.77L51.34,4.81z M36.57,31.28h2.24l5.07-10.71h14.81l5.12,10.71h2.13L51.35,0
	L36.57,31.28z M125.8,4.81l6.54,13.88h-13.11L125.8,4.81z M111.03,31.28h2.24l5.07-10.71h14.81l5.12,10.71h2.13L125.81,0
	L111.03,31.28z M35.61,0l-7.14,24.77L18.82,0.23L9.05,24.77L2.03,0H0l8.75,30.85l10.1-25.27l9.91,25.26L37.62,0H35.61z M71.69,0
	v31.28h14.51V29.4H73.69V0H71.69z M92.62,0v31.28h14.51V29.4H94.61V0H92.62z"/>
</svg>
